<svg id="Layer_1" data-name="Layer 1" xmlns="http://www.w3.org/2000/svg" viewBox="0 0 918.09 959.04"><title>logoDarck</title><path d="M1017.1,576.27q0,155.91,0,311.82c0,46.17-36,79.25-81.45,81.59-44.16,2.27-88.37,3.41-132.55,5.26-35.48,1.48-71,3.21-106.42,5q-73,3.63-145.93,7.49c-31.31,1.62-62.62,3.09-93.91,5q-57.35,3.42-114.68,7.45c-42.15,3-73.88-13-98.09-48.2-33.5-48.78-69.23-96-104-143.94q-12.94-17.83-25.76-35.77c-9.08-12.76-12.85-27.14-12.84-42.67,0-63.61.27-127.22,0-190.83-.63-124.59-1.67-249.18-2.35-373.77-.28-49.85,35.28-84.16,85-85.81,32.73-1.1,65.32-6.27,98-9.24,15.18-1.39,30.43-2,45.66-2.75,36.3-1.76,72.64-2.9,108.9-5.2,42.73-2.7,85.38-6.46,128.08-9.54,26.67-1.93,53.38-3.46,80.07-5.18,25.48-1.64,51-2.5,76.43-5.13,40-4.16,72.32,11.71,102.86,35.21,35.31,27.17,71.69,52.94,107.41,79.58,20.69,15.42,41.43,30.82,61.35,47.2,18,14.83,24.1,35.78,24.16,58.19C1017.26,366.73,1017.1,471.5,1017.1,576.27Zm-733.52,274h2.48c0,11.64-.14,23.28,0,34.92.33,22.1,20.75,42.79,42.92,42.1,30.08-.94,60.12-3,90.17-4.71,29.22-1.63,58.42-3.55,87.64-5,37.93-1.87,75.87-3.34,113.8-5.09,33.8-1.56,67.59-3.29,101.38-4.92,34.64-1.66,69.27-3.47,103.91-4.9,27.7-1.14,55.41-1.81,83.12-2.66,21.46-.66,40.86-13.57,45-31a116.37,116.37,0,0,0,3.12-26.81q-1-267.88-2.39-535.78c-.14-27.06-15.89-42.83-43-42.52-18.57.2-37.14,1.46-55.7,2.35-33.39,1.59-66.8,3.07-100.17,5-41.12,2.33-82.21,5.14-123.33,7.51-32.1,1.86-64.22,3.33-96.34,5-30.89,1.62-61.76,3.39-92.66,4.9-36.28,1.79-72.56,4.3-108.86,4.75-31.09.39-51.55,22.66-51.42,52.54C284,514.07,283.58,682.19,283.58,850.31Zm597-656.3c-5.06-5.15-8.1-9-11.88-12q-42.15-32.75-84.59-65.12C770,106.14,755.39,96.78,736,99c-14.72,1.66-29.61,1.74-44.41,2.64q-60.45,3.67-120.9,7.44c-40.74,2.5-81.49,4.75-122.21,7.53-31.16,2.14-62.25,5.41-93.42,7.32-47.75,2.93-95.55,5.18-143.33,7.58-8.72.44-17.62.16-21.72,10-4.34,10.42,2.92,16.65,9.54,21.91,19.87,15.76,39.7,31.69,60.69,45.87,11.13,7.53,24.51,16.05,37.07,16.35,34.55.82,69.21-2.41,103.82-4.13,50.3-2.48,100.59-5.14,150.89-7.52,23.13-1.1,46.28-1.63,69.42-2.6,15.66-.66,31.32-1.45,47-2.53,46-3.19,91.9-6.59,137.84-9.84C830.31,197.34,854.35,195.78,880.58,194Z" transform="translate(-99.05 -41.12)"/><path d="M600.45,414.38c0,49.58.06,97.79-.06,146,0,9,2.79,13.67,12.94,13,19.74-1.33,39.64-.83,59.29-2.86,20.78-2.14,33.72-17.7,35.2-39.15a60.93,60.93,0,0,1,1.53-10.88c4.31-16.74,19.46-23.34,34.67-14.54,3,1.75,5.83,6.84,5.86,10.42.38,48.63.23,97.27.28,145.91,0,9.4-4.49,15.35-13.74,15.4-9.91.06-23.46,4.67-25.88-11.11-4.53-29.53-20.09-44.34-56-43.49-12.88.3-25.8.53-38.65-.11-9.47-.47-13.35,2.13-13.22,12.46.53,41.15,0,82.31.43,123.46a92.31,92.31,0,0,0,3.84,24c4.69,16.51,18.57,21.32,33.4,24.79,15.73,3.69,20.88,9.51,20,21.59-.75,10.33-8.48,17.07-22.51,18.18-16.45,1.31-33,2-49.46,2.56-30.2,1-60.4,2.17-90.61,2.47a370,370,0,0,1-43.37-2.57c-8.13-.89-14.58-6.83-13-15,1.22-6.17,6.62-12,11.38-16.81,2.88-2.89,8-3.94,12.25-5,22-5.57,30.36-22.92,30.43-40.62.42-105.18,1.19-210.37-.4-315.52-.48-31.38-6.28-38.13-40.14-45.67-11.71-2.61-19-7.93-18.94-20.14.09-11.43,10.27-19.46,23.44-20,38-1.61,75.93-3.09,113.87-5,43.6-2.23,87.17-5,130.76-7.36,33.37-1.81,66.73-3.61,100.12-4.92,14.84-.58,18.28,3.22,18.31,17.88q.09,42.4-.06,84.81c0,13.05-4.41,17.76-17.14,19.25-18.34,2.15-28.53-5-29.79-24.09-2.24-33.95-24.42-45.71-52.51-45.31-36.29.5-72.56,2.92-108.83,4.77C609.81,411.33,605.56,413.11,600.45,414.38Z" transform="translate(-99.05 -41.12)"/></svg>