<svg id="Layer_1" data-name="Layer 1" xmlns="http://www.w3.org/2000/svg" viewBox="0 0 1045.62 334.14"><defs><style>.cls-1{fill:#fff;}</style></defs><title>LongLogoWhite</title><path class="cls-1" d="M326.14,382.29q0,54.34-.05,108.67a60.72,60.72,0,0,1-1.16,11.65,11,11,0,0,1-9.75,9.19c-6.3,1-12.67,1.57-19,2.06-12.41.95-24.83,1.73-37.25,2.55-8.59.57-17.2,1.06-25.79,1.66-11,.76-21.94,1.62-32.91,2.39-8.51.59-17,1.09-25.53,1.65-9.53.62-19.06,1.28-28.59,1.91q-9.06.59-18.13,1.14c-10,.59-20.11,1-30.14,1.79-11.51.92-20.41-3.45-26.51-13-6.49-10.19-12.52-20.68-18.66-31.09q-11.22-19-22.26-38.16C26.46,437.89,25,430.36,25,422.61Q24.93,325,25,227.3c0-7.06,1.79-13.72,7.82-18.34,4.52-3.46,9.88-4.35,15.39-4.7,12.94-.81,25.87-1.67,38.81-2.48,9.2-.57,18.4-1.05,27.59-1.64,11.49-.75,23-1.59,34.46-2.35,6.64-.44,13.29-.79,19.93-1.23,9.53-.61,19.05-1.29,28.58-1.9q10-.63,19.93-1.16c3.92-.21,7.84-.32,11.76-.53,8.1-.43,14.95,2.59,21.21,7.43q34.51,26.67,69.08,53.27c4.77,3.66,6.29,8.42,6.29,14.05q0,48.82,0,97.66v16.91Zm-20.85-1.94h-.06c0-19.3,0-38.61,0-57.91,0-13.49-.14-27-.37-40.48-.1-5.34-3.53-8.5-8.85-8.47-2.55,0-5.1.3-7.64.46l-31.13,2-48.76,3.12c-11.06.7-22.13,1.35-33.19,2l-40.57,2.57Q114,285,93.34,286.29c-6.72.44-10.57,4.29-11,11-.22,3.84-.23,7.69-.23,11.53q.07,85.33.21,170.66c0,3.41.19,6.83.53,10.22.72,7.13,5.14,11.33,12.34,11.38,5.71,0,11.42-.36,17.13-.72,8.93-.56,17.85-1.26,26.78-1.86,6.39-.42,12.78-.74,19.16-1.18,11.39-.77,22.78-1.64,34.18-2.4,6.8-.45,13.62-.68,20.43-1.15,16.16-1.1,32.31-2.33,48.47-3.43,11.31-.78,22.63-1.41,33.95-2.12,6-.38,9.16-3.54,9.52-9.52.22-3.66.42-7.34.42-11Q305.32,424,305.29,380.35ZM278.64,249.84l.22-1c-.48-.35-1-.67-1.45-1-12.76-10-25.46-20-38.35-29.87a13.14,13.14,0,0,0-6.84-2.3,104.8,104.8,0,0,0-12,.43c-6.9.38-13.8.77-20.69,1.22-11.23.75-22.45,1.6-33.68,2.33-9.36.61-18.73,1.05-28.09,1.66-14.29.94-28.57,2-42.87,2.94-11.83.77-23.67,1.41-35.5,2.18a35.36,35.36,0,0,0-7,1.1c-2.51.69-3.06,3.31-1.29,5.22a30.46,30.46,0,0,0,2.59,2.49c7.8,6.63,15.74,13.11,23.38,19.91,5.67,5,11.91,7.62,19.58,6.94,9.08-.8,18.19-1.32,27.3-1.89,9.45-.59,18.91-1.06,28.36-1.65,12.68-.78,25.36-1.65,38-2.45,6.81-.43,13.63-.74,20.44-1.18,11.92-.77,23.82-1.63,35.74-2.4,8.93-.58,17.88-1,26.81-1.64A45.11,45.11,0,0,0,278.64,249.84Z" transform="translate(-24.96 -192.93)"/><path class="cls-1" d="M561.11,387.15l-25.2-2.68c2-12.36,8-21.57,19-26.09a61.41,61.41,0,0,1,47.55,0c11.77,4.77,17.34,14.71,17.56,27.26.39,23.54.11,47.1.11,70.95H595.81V444.57c-1.64,1.81-2.47,2.66-3.22,3.57-11.8,14.48-41.43,14.36-52.42-.24-15.16-20.13-5.12-45.29,20-49.72,8.86-1.56,17.82-2.53,26.72-3.88,3.81-.57,7.33-1.66,7.7-6.64A11.55,11.55,0,0,0,587.92,376C576.66,371,566.18,375.2,561.11,387.15Zm33.49,24c-7.26,1.12-14.09,2-20.84,3.28a26.55,26.55,0,0,0-7.57,3c-4.11,2.25-5.88,6-5.19,10.75.8,5.5,3.88,9,8.88,9.72,14.49,1.94,25.68-4.81,24.74-20.74C594.51,415.34,594.6,413.52,594.6,411.15Z" transform="translate(-24.96 -192.93)"/><path class="cls-1" d="M453.93,320.58v25.64H401.66V378h46.78V402h-47v54.67H375.21v-136Z" transform="translate(-24.96 -192.93)"/><path class="cls-1" d="M640.4,456.66v-101h25.93v11.65c.42.35.83.71,1.24,1.07a46.53,46.53,0,0,1,3.58-4.81c10.91-11.24,24.08-12,37.59-7.18,12.84,4.57,18.09,15.81,18.43,28.82.61,23.41.21,46.85.21,70.29,0,.29-.23.58-.46,1.13H701.19v-5.12c0-18.78.08-37.57-.05-56.35,0-6.78-2-12.88-8.36-16.22s-12.92-2.51-18.81,1.37c-6.25,4.11-7.57,10.9-7.62,17.87-.14,17.45,0,34.91,0,52.36v6.11Z" transform="translate(-24.96 -192.93)"/><path class="cls-1" d="M968.71,355.62v12.9c5.7-7.29,11.76-12.32,19.78-13.81,20.74-3.85,39.83,5.58,40.3,31.9.39,21.92.18,43.85.22,65.78,0,1.3-.15,2.6-.24,4.2h-25.89v-5.15q0-26.18,0-52.33c0-1.66-.06-3.32-.13-5-.42-10.26-5.46-16.33-14.07-17-10.24-.77-17.6,4.49-19.29,14.52-.88,5.19-.75,10.58-.78,15.88-.08,16.25,0,32.49,0,49.05H943v-101Z" transform="translate(-24.96 -192.93)"/><path class="cls-1" d="M932,404.63c-.88,16.77-3.57,31.67-15.56,42.65-13.53,12.38-29.52,14.09-46.19,9.13-16.3-4.86-25.75-16.94-29.35-33.71-2.78-13-2.86-26,1.63-38.68,8.82-24.89,29.15-33.22,51.7-29.32,21.72,3.75,34.44,19.08,36.78,41.78C931.31,399.6,931.75,402.71,932,404.63Zm-26.31,2.77c-.75-4.81-1.17-11.64-3-18.06-2.66-9.57-8.45-13.4-17.88-13.28-8.25.11-14.33,4.78-16.75,13.68a60.68,60.68,0,0,0-.31,32.31c2.74,10.07,9,14.91,18.51,14.81,8.36-.09,15-5.75,17.3-15.22C904.55,417.66,904.81,413.5,905.67,407.4Z" transform="translate(-24.96 -192.93)"/><path class="cls-1" d="M767.77,456.74H742V355.65h25.78v13.13c2.32-2.34,4-3.93,5.61-5.67,11.76-13.13,37.26-11.9,47.77,1.25,4.58,5.74,7.64,12.28,7.76,19.4.42,24.2.16,48.41.16,72.89H803.94v-5.18c0-17.6,0-35.2,0-52.8a36.28,36.28,0,0,0-.8-7.35c-2.13-10.06-7.2-14.3-16.72-14.19-8.79.1-15.74,6-17.26,15a76.3,76.3,0,0,0-.93,12.37c-.1,16.93,0,33.87-.05,50.81A8.15,8.15,0,0,1,767.77,456.74Z" transform="translate(-24.96 -192.93)"/><path class="cls-1" d="M466,355.62h25.75v14c3-3.83,5.25-7.28,8.1-10,6.9-6.69,15.4-6.67,24-5.05a4.07,4.07,0,0,1,2.45,3c.21,7.43.11,14.87.11,22.64-3.42-.37-5.63-.72-7.85-.82-17.78-.79-26.48,7.69-26.57,25.92-.06,14.79,0,29.57,0,44.36v6.86H466Z" transform="translate(-24.96 -192.93)"/><path class="cls-1" d="M1042.94,355.57h25.32V456.66h-25.32Z" transform="translate(-24.96 -192.93)"/><path class="cls-1" d="M1070.58,324.26c-.15,9.05-6.52,15.37-15.45,15.33-9.22,0-15.8-7-15.58-16.37.19-8.51,7.43-14.91,16.74-14.79C1064.86,308.54,1070.72,315,1070.58,324.26Z" transform="translate(-24.96 -192.93)"/><path class="cls-1" d="M222.29,413.27c-.3-1.89-.52-4.26-1.08-6.55-1.13-4.66-3.36-6.81-8-6.78-8.52.06-17,.56-25.79.89v3.6c0,13,.14,26-.06,38.95-.12,7.54,2.23,9.82,10,11,2.27.35,4.57.46,6.87.63,1.52.1,2.24.64,2.2,2.36-.11,4.27-.05,8.54,0,12.81,0,1.54-.53,2.11-2,2.2-12.85.82-25.69,1.72-38.54,2.55q-17.87,1.17-35.74,2.16a2.16,2.16,0,0,1-1.6-1.39c-.19-4.09-.17-8.19-.24-12.29,0-1.58.7-2.06,2.26-2.4a74,74,0,0,0,12-3.25c3.93-1.58,6-4.92,6-9.31q0-37.8.07-75.6,0-16.15-.09-32.3c0-5.66-2.79-8.62-8.44-9.18-3.65-.36-7.29-.76-10.94-1-1.55-.1-2.09-.73-2.08-2.21q.06-6.4,0-12.81c0-1.39.48-1.93,1.93-2,8.26-.44,16.52-1,24.79-1.48,10-.63,20.08-1.3,30.12-1.9,7.07-.42,14.15-.73,21.22-1.14,13.71-.8,27.42-1.66,41.13-2.46,4.68-.27,9.38-.41,14.06-.66,1.4-.07,2,.37,2,1.87,0,13.23,0,26.47,0,40-4.73.22-9.37.51-14,.56-.43,0-1.23-1.4-1.26-2.17-.13-3.64-.72-7.08-2.89-10.13a10.91,10.91,0,0,0-9.33-4.95c-10.07.25-20.12.8-30.18,1.26-5.44.25-10.88.58-16.51.88v46.08c3.41-.2,6.71-.38,10-.59,4-.24,8-.39,12-.8,8.56-.9,10.78-5.86,11.61-12.79.26-2.17.79-2.86,3-2.86,4.86,0,9.72-.33,14.58-.53.57,0,1.15,0,2.08,0V366q0,22.29.09,44.59c0,1.23.13,2.62-1.59,2.64C234.09,413.31,228.31,413.27,222.29,413.27Z" transform="translate(-24.96 -192.93)"/></svg>