<svg id="Layer_1" data-name="Layer 1" xmlns="http://www.w3.org/2000/svg" viewBox="0 0 403.06 109.67"><defs><style>.cls-1,.cls-2{stroke:#000;stroke-miterlimit:10;}.cls-1{stroke-width:3px;}.cls-2{stroke-width:2px;}</style></defs><title>suscribiteBlack</title><g id="Layer_2" data-name="Layer 2"><g id="Layer_1-2" data-name="Layer 1-2"><path class="cls-1" d="M54.67,110.69a54.17,54.17,0,0,1,3.34-4.4c.5-.55,1.59-.73,2.39-1.08.07.67.43,1.5.13,2.06-2.39,4.44-4.78,8.87-7.45,13.21-.47.77-2,1.09-3,1.63a19.45,19.45,0,0,1-1.18-2.6c-1.11-3.74-2.18-7.49-3.18-11.25a33.64,33.64,0,0,1-.63-4l1.47-.44,3.08,5.67c.93-6.72,1.84-13.11,2.64-19.53,3-24.45,18.51-42.58,41.37-57,9.63-6.09,20.31-9.39,32.56-8.44,13.47,1.05,26,4.88,38.62,8.68,22.42,6.74,40.72,18.23,56.39,33,1.6,1.48,3.5,2.74,5,4.29.61.66.49,1.77.71,2.66-1.35,0-3.28.52-4,0-4.65-3.8-9.26-7.65-13.46-11.79-17.07-16.78-40.06-23.76-64.91-29-9.7-2-18.33-3.66-28.36-2.66A43.27,43.27,0,0,0,92.84,39C78.78,49.72,65.68,61.43,60.7,77.12a183.38,183.38,0,0,0-6,25.13c-.46,2.73-.52,5.51-.8,8.25Z" transform="translate(-43.42 -22.86)"/><path class="cls-2" d="M127.83,96.51l8.54,4.51c3.54,1.8,7.2,3.4,10.64,5.37,4,2.29,6.84,5.69,6,10.56s-4.67,7.35-8.95,8.49a36.86,36.86,0,0,1-23.93-1.24,7.91,7.91,0,0,1-3.85-2.89c-.7-1.2-.93-3.52-.2-4.44s3.51-1.21,4.29-.52c6.16,5.39,13.46,4,20.46,3.5,2.11-.14,4.08-2.24,6.12-3.44-1.22-1.8-2-4.27-3.75-5.28-3.95-2.37-8.32-4-12.51-6-2.4-1.12-5.11-1.9-7.07-3.55s-4.22-4.12-4.45-6.42c-.14-1.44,2.94-3.79,5-4.76,6.61-3.07,13.36-5.85,20.19-8.36a18.45,18.45,0,0,1,7.75-.67c.87.07,1.89,2,2.2,3.29.14.58-1.39,2.3-2,2.22-7.38-1.06-12.7,4.18-19.1,6.07a44.94,44.94,0,0,0-5,2.13Z" transform="translate(-43.42 -22.86)"/><path class="cls-2" d="M324.78,105.18c6.53.31,12.45-.29,17.88,1.06,8,2,9.6,11.23,3.48,16.81a18.37,18.37,0,0,1-20.41,2.68c-4.08-2.17-7-5.49-6.77-10.24.57-12.11,1.44-24.2,2.49-36.27.11-1.2,2.22-2.23,3.4-3.34.68,1.32,2,2.67,1.92,4-.24,5.14-1,10.25-1.38,15.38C325.06,98.83,324.92,102.46,324.78,105.18Zm8.93,16.88a15.86,15.86,0,0,0,3.15-.23c3.26-1,6.57-2.12,6.72-6.26.11-3.15-3.76-5.83-8.1-5.67-2,.08-4.17.22-5.75,1.17-1.88,1.14-4.81,3.76-4.46,4.72.84,2.32,3.18,4.21,5.2,6,.69.55,2.23.2,3.22.27Z" transform="translate(-43.42 -22.86)"/><path class="cls-2" d="M386.84,92.61c4.82,0,9.08-.14,13.32.08,1.23.07,2.41,1.18,3.62,1.82-1.17.87-2.32,1.76-3.51,2.6a2.91,2.91,0,0,1-.95.29l-12.22,3.4c.3,7,.18,14,1.08,20.83.46,3.5,6.78,3.13,9.33-.6.89-1.31.94-3.19,1.77-4.56.6-1,1.87-1.55,2.84-2.31.63,1.06,2,2.45,1.76,3.12a83.26,83.26,0,0,1-5.1,9.78c-.43.72-1.69,1-2.6,1.39-9.64,4.12-13.74,1.46-14.33-9.23-.31-5.6-.68-11.19-1-16.72-3.6-1.15-8.85,4.24-9.8-2.13-1-6.64,6.22-3.51,9.44-6.39a81.9,81.9,0,0,1,.1-9c.16-1.47,1.42-2.81,2.18-4.22,1.12,1.36,2.76,2.56,3.23,4.12C386.69,87.25,386.58,89.83,386.84,92.61Z" transform="translate(-43.42 -22.86)"/><path class="cls-2" d="M206.46,106.55c4.77,2.48,9.59,4.87,14.29,7.48,2.87,1.6,5.93,3.16,8.25,5.42,4.1,4,3,8.68-2.5,10.32-8,2.39-16,2.77-23.5-2-3.57-2.25-3.72-3.07-1.47-7.91,7.09,4.92,14.72,7.18,23,4.1l.61-1.67c-4.9-2.46-9.85-4.85-14.69-7.43a92.23,92.23,0,0,1-9.78-5.77c-3.25-2.25-3-5.11-.07-7.41a25,25,0,0,1,18.05-5.56c1.24.11,2.31,2.06,3.46,3.16-1.16.86-2.21,2.15-3.51,2.49-4,1-8,1.74-12,2.57Z" transform="translate(-43.42 -22.86)"/><path class="cls-2" d="M417.42,114.34c-1.58,5.89,2.68,11.4,9,11.57,3.4.09,6.82-1,10.24-1.46,2.09-.31,4.18-.54,7.94-1-1.47,2.49-2,4.6-3.07,5-8.06,2.71-16.2,5.38-24.28-.17-6.12-4.21-8.07-9.83-4.59-16.39a37.75,37.75,0,0,1,8.12-10.51c4.45-3.92,11-3.69,14.66-.33,3.31,3,3.35,6.74,1.32,10.44-2.52,4.6-8.44,6.67-13.92,5C421.14,116,419.5,115.17,417.42,114.34Zm2.24-4.89.55,1.88c3,0,6.19.59,9-.23,1.51-.45,2.32-3.27,3.44-5-2.22-.64-4.76-2.24-6.59-1.66C423.6,105.2,421.78,107.69,419.66,109.45Z" transform="translate(-43.42 -22.86)"/><path class="cls-2" d="M191.08,127.62c-5.3-1.7-5.3-1.7-7.76-10.24-2.66,2.41-5.06,5.2-8,7.15-5.67,3.72-12.15,1.43-13.45-5.27-1-4.89-.2-10.18.24-15.25.09-1.06,2.13-2,3.27-2.93.87,1.37,2.47,2.74,2.46,4.1,0,2.76-1.56,5.6-1.24,8.26.29,2.45,1.69,5.92,3.53,6.67,1.58.65,5.46-1.3,6.59-3.16,2.71-4.41,4.33-9.49,6.55-14.22a20.28,20.28,0,0,1,2.79-3.6c1,1.2,2.38,2.25,2.84,3.63s0,3.28.19,4.92c.52,4.91,1.17,9.8,1.71,14.7C191,124,191,125.67,191.08,127.62Z" transform="translate(-43.42 -22.86)"/><path class="cls-2" d="M266.47,122.89c-1.61,1.15-3.21,3.26-4.82,3.27-6.22.06-12.61.19-18.62-1.13-5.63-1.24-7.72-5.78-7.14-11.55.8-8,10.73-16.16,18.47-14.34,2.82.67,5.29,3.47,7.45,5.75.58.6-.6,2.86-1,4.36-1.35-.47-3.25-.55-3.94-1.51-2-2.76-4.84-4.07-7.24-2.23a29.15,29.15,0,0,0-7.5,9.13c-.37.68,3,4,5.17,5.31,1.52,1,3.8,1,5.75,1,4.13.15,8.26,0,12.39,0Z" transform="translate(-43.42 -22.86)"/><path class="cls-2" d="M277.41,106.66c1.76-2.11,2.77-3.52,4-4.75,3.13-3.18,6.84-4.82,11.22-3,1.07.44,1.66,2,2.47,3.11-1,.63-1.92,1.72-3,1.84-9.6,1.09-14.39,7.83-13,17.6.3,2-1.5,4.36-2.33,6.55-1.3-1.85-3.47-3.58-3.73-5.56-.81-6.24-1-12.57-1.24-18.87-.1-2.32-1.17-5.51,2.44-5.86.73-.07,1.89,3.36,2.68,5.25C277.32,103.74,277.21,104.73,277.41,106.66Z" transform="translate(-43.42 -22.86)"/><path class="cls-2" d="M309.66,120.45a3.74,3.74,0,0,1-.11,1c-.74,1.83-1.52,3.64-2.28,5.46-1.13-1.75-2.92-3.38-3.25-5.27A90.19,90.19,0,0,1,303,108.31c0-1,1.16-2,1.79-3,.9.82,2.38,1.51,2.61,2.49C308.33,112,308.93,116.23,309.66,120.45Z" transform="translate(-43.42 -22.86)"/><path class="cls-2" d="M365,119.87a13.69,13.69,0,0,1-.2,3c-.59,1.37-1.35,2.66-2,4-1.05-1.24-2.8-2.37-3-3.74a133.35,133.35,0,0,1-1.42-14.79c0-1,1.2-2,1.86-3,.88.81,2.34,1.48,2.56,2.44C363.78,112.12,364.42,116.5,365,119.87Z" transform="translate(-43.42 -22.86)"/><path class="cls-2" d="M303.44,84.35c2.74,3.73,4.74,6.38,6.53,9.16.07.1-1.83,2.1-2.91,2.2-3.2.29-8.2-3.53-7.59-5.75C299.91,88.32,301.49,87,303.44,84.35Z" transform="translate(-43.42 -22.86)"/><path class="cls-2" d="M359.11,84.49c2.7,3.65,4.66,6.31,6.63,9-1.18.79-2.36,2.22-3.55,2.24-3.55,0-7.91-3.7-7.16-6C355.54,88.12,357.17,86.87,359.11,84.49Z" transform="translate(-43.42 -22.86)"/></g></g></svg>