<svg id="Layer_1" data-name="Layer 1" xmlns="http://www.w3.org/2000/svg" viewBox="0 0 293.96 133.18"><defs><style>.cls-1{fill:#fff;stroke:#fff;stroke-miterlimit:10;stroke-width:3px;}</style></defs><title>suscribiteWhite1</title><g id="Layer_2" data-name="Layer 2"><g id="Layer_1-2" data-name="Layer 1-2"><path class="cls-1" d="M225.39,69.33c-.84,0-1.68-.1-2.51-.16-1.28,5.56-2.78,11.14-4.41,16.74-3.1,10.68-6.08,20-12.88,29-6.43,8.42-13.81,13-23.87,16.11-20.26,6.23-41.12,10.87-62,5a288.74,288.74,0,0,1-32.31-11.29c-3.4-1.4-6.63-3.22-10-4.81l.19-.82c2.32,0,4.66,0,7-.22.92-.11,1.74-1,2.58-1.57-.73-.51-1.48-1.42-2.29-1.51-6.47-.71-12.91-1.41-19.41-1.78-1.16-.07-2.37,1.14-3.57,1.77a29.54,29.54,0,0,0,2.34,2.89c3.69,3.58,7.4,7.15,11.17,10.65,1.33,1.24,2.83,2.2,4.31,3.33l1.33-1.11-4.8-6.79c8.26,3.66,16.14,7.1,24,10.67,29.87,13.66,59.47,11,88.91-1.15,12.43-5.12,22.23-13.13,28-25.51,5.71-12.22,8.42-25.25,10.87-38.38A11.59,11.59,0,0,1,225.39,69.33Z" transform="translate(-59.7 -12.95)"/><path class="cls-1" d="M86.05,32.65l7.14,3.77c3,1.51,6,2.84,8.89,4.49,3.35,1.92,5.72,4.76,5,8.83s-3.9,6.14-7.48,7.09a30.83,30.83,0,0,1-20-1,6.69,6.69,0,0,1-3.22-2.42c-.59-1-.78-2.94-.17-3.71s2.94-1,3.59-.43c5.15,4.5,11.25,3.34,17.1,2.92,1.76-.12,3.41-1.87,5.11-2.87-1-1.51-1.67-3.57-3.13-4.42-3.3-2-7-3.34-10.46-5-2-.94-4.27-1.59-5.91-3S79,33.45,78.81,31.52c-.11-1.2,2.46-3.16,4.18-4,5.53-2.57,11.17-4.89,16.88-7a15.27,15.27,0,0,1,6.48-.56c.72.06,1.58,1.67,1.84,2.75.11.48-1.17,1.92-1.68,1.85-6.16-.88-10.61,3.5-16,5.08a37.46,37.46,0,0,0-4.18,1.78Z" transform="translate(-59.7 -12.95)"/><path class="cls-1" d="M250.67,39.9c5.46.26,10.41-.24,15,.89,6.68,1.67,8,9.38,2.91,14.05a15.36,15.36,0,0,1-17.06,2.24c-3.41-1.82-5.86-4.59-5.66-8.56.47-10.12,1.2-20.23,2.08-30.32.09-1,1.85-1.86,2.84-2.79.57,1.1,1.67,2.23,1.6,3.34-.2,4.3-.83,8.57-1.15,12.86C250.91,34.59,250.79,37.63,250.67,39.9ZM258.14,54a13.64,13.64,0,0,0,2.63-.19c2.72-.84,5.49-1.78,5.62-5.24.09-2.63-3.15-4.87-6.78-4.73a10.45,10.45,0,0,0-4.8,1c-1.57,1-4,3.15-3.73,4,.7,1.94,2.66,3.52,4.35,5,.57.46,1.86.17,2.69.23Z" transform="translate(-59.7 -12.95)"/><path class="cls-1" d="M302.54,29.39c4,0,7.59-.11,11.14.07,1,.06,2,1,3,1.52-1,.73-1.94,1.47-2.93,2.17a2.49,2.49,0,0,1-.8.25l-10.21,2.84c.25,5.81.15,11.66.9,17.41.39,2.92,5.67,2.62,7.8-.5.75-1.1.79-2.67,1.48-3.81.5-.84,1.56-1.3,2.38-1.93.52.88,1.67,2,1.47,2.6a68.32,68.32,0,0,1-4.27,8.18c-.36.6-1.41.83-2.17,1.16-8.06,3.44-11.48,1.22-12-7.71-.26-4.69-.57-9.36-.83-14-3-1-7.4,3.54-8.19-1.78-.84-5.55,5.19-2.93,7.89-5.34a67.36,67.36,0,0,1,.08-7.52c.13-1.23,1.19-2.35,1.82-3.53.94,1.14,2.31,2.14,2.7,3.44C302.42,24.91,302.33,27.07,302.54,29.39Z" transform="translate(-59.7 -12.95)"/><path class="cls-1" d="M151.77,41c4,2.08,8,4.08,11.95,6.26a31.35,31.35,0,0,1,6.89,4.53c3.43,3.34,2.51,7.25-2.08,8.62-6.69,2-13.38,2.32-19.65-1.67-3-1.88-3.11-2.56-1.23-6.61,5.93,4.11,12.31,6,19.23,3.43l.51-1.4c-4.1-2.06-8.23-4.05-12.28-6.21a77.81,77.81,0,0,1-8.17-4.82c-2.72-1.88-2.51-4.27-.06-6.2A20.85,20.85,0,0,1,162,32.33c1,.09,1.93,1.72,2.9,2.64-1,.72-1.85,1.8-2.94,2.08-3.34.84-6.68,1.45-10,2.15Z" transform="translate(-59.7 -12.95)"/><path class="cls-1" d="M328.1,47.56c-1.32,4.92,2.24,9.52,7.53,9.67,2.84.07,5.7-.84,8.56-1.22,1.74-.26,3.49-.45,6.63-.84-1.23,2.08-1.67,3.85-2.56,4.18-6.74,2.26-13.54,4.5-20.3-.14-5.11-3.52-6.74-8.22-3.83-13.7a31.55,31.55,0,0,1,6.78-8.79c3.72-3.27,9.2-3.08,12.26-.27,2.76,2.51,2.8,5.63,1.1,8.72-2.11,3.85-7.06,5.58-11.64,4.18C331.21,48.93,329.84,48.25,328.1,47.56ZM330,43.47l.46,1.57c2.5,0,5.17.49,7.48-.19,1.26-.38,1.94-2.74,2.87-4.18-1.85-.54-4-1.87-5.51-1.39C333.27,39.92,331.75,42,330,43.47Z" transform="translate(-59.7 -12.95)"/><path class="cls-1" d="M138.92,58.66c-4.43-1.42-4.43-1.42-6.49-8.56-2.22,2-4.23,4.34-6.68,6-4.74,3.11-10.16,1.2-11.25-4.4-.83-4.09-.16-8.51.21-12.75.07-.88,1.78-1.67,2.73-2.45.73,1.15,2.06,2.29,2,3.43,0,2.31-1.3,4.68-1,6.9.24,2.05,1.41,5,3,5.58,1.32.54,4.56-1.09,5.51-2.64,2.26-3.69,3.62-7.93,5.47-11.89a18.34,18.34,0,0,1,2.33-3c.84,1,2,1.88,2.38,3s0,2.74.16,4.11c.43,4.1,1,8.19,1.43,12.29C138.82,55.65,138.84,57,138.92,58.66Z" transform="translate(-59.7 -12.95)"/><path class="cls-1" d="M201.93,54.7c-1.34,1-2.68,2.73-4,2.74-5.19.05-10.53.15-15.56-.95-4.7-1-6.45-4.83-6-9.65.67-6.73,9-13.51,15.44-12,2.36.56,4.42,2.9,6.23,4.81.48.5-.5,2.39-.84,3.64-1.13-.39-2.71-.46-3.29-1.26-1.67-2.31-4-3.4-6-1.86a24.23,24.23,0,0,0-6.27,7.63c-.31.57,2.51,3.3,4.32,4.44,1.27.83,3.18.83,4.81.83,3.45.13,6.9,0,10.35,0Z" transform="translate(-59.7 -12.95)"/><path class="cls-1" d="M211.08,41.14c1.47-1.77,2.31-3,3.34-4,2.62-2.66,5.72-4,9.38-2.51.89.37,1.39,1.67,2.06,2.6-.83.53-1.6,1.44-2.5,1.54-8,.91-12,6.54-10.83,14.71.25,1.67-1.25,3.64-1.95,5.47-1.08-1.54-2.9-3-3.11-4.65-.68-5.21-.84-10.5-1-15.77-.08-1.94-1-4.6,2-4.9.61,0,1.58,2.81,2.24,4.39A13.1,13.1,0,0,1,211.08,41.14Z" transform="translate(-59.7 -12.95)"/><path class="cls-1" d="M238,52.66a3,3,0,0,1-.09.84c-.62,1.53-1.27,3-1.9,4.56-.95-1.46-2.44-2.82-2.72-4.4a75.6,75.6,0,0,1-.89-11.14c0-.84,1-1.68,1.49-2.51.75.68,2,1.26,2.18,2.08C236.92,45.58,237.42,49.14,238,52.66Z" transform="translate(-59.7 -12.95)"/><path class="cls-1" d="M284.31,52.18a11.13,11.13,0,0,1-.17,2.51c-.49,1.14-1.13,2.22-1.67,3.34-.88-1-2.34-2-2.51-3.13a113.61,113.61,0,0,1-1.19-12.36c0-.83,1-1.67,1.56-2.51.73.68,1.95,1.24,2.14,2C283.27,45.7,283.8,49.36,284.31,52.18Z" transform="translate(-59.7 -12.95)"/><path class="cls-1" d="M232.83,22.49c2.29,3.12,4,5.33,5.46,7.66A5.27,5.27,0,0,1,235.86,32c-2.67.25-6.85-2.95-6.34-4.8C229.88,25.81,231.2,24.7,232.83,22.49Z" transform="translate(-59.7 -12.95)"/><path class="cls-1" d="M279.37,22.61c2.25,3.05,3.89,5.27,5.54,7.52-1,.66-2,1.85-3,1.87-3,0-6.61-3.09-6-5C276.38,25.64,277.74,24.6,279.37,22.61Z" transform="translate(-59.7 -12.95)"/></g></g></svg>