<svg xmlns="http://www.w3.org/2000/svg" viewBox="0 0 453.84 153.37"><defs><style>.cls-1{fill:#fff;}</style></defs><title>Asset 2</title><g id="Layer_2" data-name="Layer 2"><g id="Layer_1-2" data-name="Layer 1"><path class="cls-1" d="M12,129.75c1.37-2.22,2.62-4.54,4.19-6.61.63-.83,2-1.1,3-1.62.08,1,.54,2.25.16,3.09-3,6.68-6,13.33-9.35,19.85-.59,1.16-2.47,1.65-3.76,2.45A30.22,30.22,0,0,1,4.76,143c-1.39-5.62-2.74-11.25-4-16.9-.44-2-.53-4-.78-6.08l1.84-.66,3.87,8.52C6.85,117.79,8,108.18,9,98.54c3.76-36.76,23.22-64,51.91-85.62C73,3.77,86.4-1.19,101.77.24c16.9,1.58,32.65,7.34,48.47,13.05,28.13,10.13,51.09,27.4,70.76,49.52,2,2.23,4.39,4.11,6.26,6.44.77,1,.62,2.67.89,4-1.7,0-4.11.79-5,0-5.83-5.7-11.61-11.5-16.89-17.71C184.85,30.32,156,19.82,124.81,12c-12.17-3.07-23-5.51-35.59-4-11.88,1.44-20.56,6-29.33,14C42.25,38.11,25.81,55.71,19.56,79.29a322.24,322.24,0,0,0-7.46,37.78c-.58,4.1-.65,8.27-1,12.4Z"/><path class="cls-1" d="M137.05,118.39c2.84,1.5,5.68,3,8.54,4.51,3.54,1.8,7.2,3.4,10.64,5.37,4,2.29,6.84,5.69,6,10.56s-4.67,7.35-8.95,8.49a36.88,36.88,0,0,1-23.93-1.24,8,8,0,0,1-3.85-2.89c-.7-1.2-.93-3.52-.2-4.44s3.51-1.21,4.29-.52c6.16,5.39,13.46,4,20.46,3.5,2.11-.14,4.08-2.24,6.12-3.44-1.22-1.8-2-4.27-3.75-5.28-3.95-2.37-8.32-4-12.51-6-2.4-1.12-5.11-1.9-7.07-3.55s-4.22-4.12-4.45-6.42c-.14-1.44,2.94-3.79,5-4.76,6.61-3.07,13.36-5.85,20.19-8.36a18.34,18.34,0,0,1,7.75-.67c.87.07,1.89,2,2.2,3.29.14.58-1.39,2.3-2,2.22-7.38-1.06-12.7,4.18-19.1,6.07a45.32,45.32,0,0,0-5,2.13Z"/><path class="cls-1" d="M334,127.06c6.53.31,12.45-.29,17.88,1.06,8,2,9.6,11.23,3.48,16.81a18.36,18.36,0,0,1-20.41,2.68c-4.08-2.17-7-5.49-6.77-10.24.57-12.11,1.44-24.2,2.49-36.27.11-1.2,2.22-2.23,3.4-3.34.68,1.32,2,2.67,1.92,4-.24,5.14-1,10.25-1.38,15.38C334.28,120.71,334.14,124.34,334,127.06Zm8.93,16.88a16.12,16.12,0,0,0,3.15-.23c3.26-1,6.57-2.12,6.72-6.26.11-3.15-3.76-5.83-8.1-5.67-1.95.08-4.17.22-5.75,1.17-1.88,1.14-4.81,3.76-4.46,4.72.84,2.32,3.18,4.21,5.2,6C340.38,144.22,341.92,143.87,342.91,143.94Z"/><path class="cls-1" d="M396.06,114.49c4.82,0,9.08-.14,13.32.08,1.23.07,2.41,1.18,3.62,1.82-1.17.87-2.32,1.76-3.51,2.6a2.85,2.85,0,0,1-.95.29l-12.22,3.4c.3,6.95.18,13.95,1.08,20.83.46,3.5,6.78,3.13,9.33-.6.89-1.31.94-3.19,1.77-4.56.6-1,1.87-1.55,2.84-2.31.63,1.06,2,2.45,1.76,3.12a82.54,82.54,0,0,1-5.1,9.78c-.43.72-1.69,1-2.6,1.39-9.64,4.12-13.74,1.46-14.33-9.23-.31-5.6-.68-11.19-1-16.72-3.6-1.15-8.85,4.24-9.8-2.13-1-6.64,6.22-3.51,9.44-6.39a82.26,82.26,0,0,1,.1-9c.16-1.47,1.42-2.81,2.18-4.22,1.12,1.36,2.76,2.56,3.23,4.12C395.91,109.13,395.8,111.71,396.06,114.49Z"/><path class="cls-1" d="M215.68,128.43c4.77,2.48,9.59,4.87,14.29,7.48,2.87,1.6,5.93,3.16,8.25,5.42,4.1,4,3,8.68-2.5,10.32-8,2.39-16,2.77-23.5-2-3.57-2.25-3.72-3.07-1.47-7.91,7.09,4.92,14.72,7.18,23,4.1l.61-1.67c-4.9-2.46-9.85-4.85-14.69-7.43a94.69,94.69,0,0,1-9.78-5.77c-3.25-2.25-3-5.11-.07-7.41A25,25,0,0,1,227.87,118c1.24.11,2.31,2.06,3.46,3.16-1.16.86-2.21,2.15-3.51,2.49-4,1-8,1.74-12,2.57Z"/><path class="cls-1" d="M426.64,136.22c-1.58,5.89,2.68,11.4,9,11.57,3.4.09,6.82-1,10.24-1.46,2.09-.31,4.18-.54,7.94-1-1.47,2.49-2,4.6-3.07,5-8.06,2.71-16.2,5.38-24.28-.17-6.12-4.21-8.07-9.83-4.59-16.39A37.73,37.73,0,0,1,430,123.26c4.45-3.92,11-3.69,14.66-.33,3.31,3,3.35,6.74,1.32,10.44-2.52,4.6-8.44,6.67-13.92,5C430.36,137.86,428.72,137.05,426.64,136.22Zm2.24-4.89.55,1.88c3,0,6.19.59,8.95-.23,1.51-.45,2.32-3.27,3.44-5-2.22-.64-4.76-2.24-6.59-1.66C432.82,127.08,431,129.57,428.88,131.33Z"/><path class="cls-1" d="M200.3,149.5c-5.3-1.7-5.3-1.7-7.76-10.24-2.66,2.41-5.06,5.2-8,7.15-5.67,3.72-12.15,1.43-13.45-5.27-1-4.89-.2-10.18.24-15.25.09-1.06,2.13-2,3.27-2.93.87,1.37,2.47,2.74,2.46,4.1,0,2.76-1.56,5.6-1.24,8.26.29,2.45,1.69,5.92,3.53,6.67,1.58.65,5.46-1.3,6.59-3.16,2.71-4.41,4.33-9.49,6.55-14.22a20.58,20.58,0,0,1,2.79-3.6c1,1.2,2.38,2.25,2.84,3.63s0,3.28.19,4.92c.52,4.91,1.17,9.8,1.71,14.7C200.18,145.9,200.2,147.55,200.3,149.5Z"/><path class="cls-1" d="M275.69,144.77c-1.61,1.15-3.21,3.26-4.82,3.27-6.22.06-12.61.19-18.62-1.13-5.63-1.24-7.72-5.78-7.14-11.55.8-8.05,10.73-16.16,18.47-14.34,2.82.67,5.29,3.47,7.45,5.75.58.6-.6,2.86-1,4.36-1.35-.47-3.25-.55-3.94-1.51-2-2.76-4.84-4.07-7.24-2.23a29.13,29.13,0,0,0-7.5,9.13c-.37.68,3,3.95,5.17,5.31,1.52,1,3.8,1,5.75,1,4.13.15,8.26,0,12.39,0Z"/><path class="cls-1" d="M286.63,128.54c1.76-2.11,2.77-3.52,4-4.75,3.13-3.18,6.84-4.82,11.22-3,1.07.44,1.66,2,2.47,3.11-1,.63-1.92,1.72-3,1.84-9.6,1.09-14.39,7.83-12.95,17.6.3,2-1.5,4.36-2.33,6.55-1.3-1.85-3.47-3.58-3.73-5.56-.81-6.24-1-12.57-1.24-18.87-.1-2.32-1.17-5.51,2.44-5.86.73-.07,1.89,3.36,2.68,5.25C286.54,125.62,286.43,126.61,286.63,128.54Z"/><path class="cls-1" d="M318.88,142.33a3.47,3.47,0,0,1-.11,1c-.74,1.83-1.52,3.64-2.28,5.46-1.13-1.75-2.92-3.38-3.25-5.27a91.23,91.23,0,0,1-1.07-13.33c0-1,1.16-2,1.79-3,.9.82,2.38,1.51,2.61,2.49C317.55,133.86,318.15,138.11,318.88,142.33Z"/><path class="cls-1" d="M374.24,141.75a13.14,13.14,0,0,1-.2,3c-.59,1.37-1.35,2.66-2,4-1.05-1.24-2.8-2.37-3-3.74a135.32,135.32,0,0,1-1.42-14.79c-.05-1,1.2-2,1.86-3,.88.81,2.34,1.48,2.56,2.44C373,134,373.64,138.38,374.24,141.75Z"/><path class="cls-1" d="M312.66,106.23c2.74,3.73,4.74,6.38,6.53,9.16.07.1-1.83,2.1-2.91,2.2-3.2.29-8.2-3.53-7.59-5.75C309.13,110.2,310.71,108.88,312.66,106.23Z"/><path class="cls-1" d="M368.33,106.37c2.7,3.65,4.66,6.31,6.63,9-1.18.79-2.36,2.22-3.55,2.24-3.55,0-7.91-3.7-7.16-6C364.76,110,366.39,108.75,368.33,106.37Z"/></g></g></svg>